# xmcd CD database file
# Copyright (C) 1993-1998 Ti Kan
# 
# Track frame offsets:
#     150
#     13363
#     26900
#     37700
#     48855
#     61875
#     70082
#     75665
#     78137
#     82337
#     86062
#     91813
#     103513
#     115050
#     126738
#     136363
#     152275
#     163113
#     175813
#     187438
# 
# Disc length: 2951 seconds
# 
# Revision: 1
# Processed by: cddbd v1.4b41PL1 Copyright (c) Steve Scherf et al.
# Submitted via: DiscPlay 4.0.4
# 
DISCID=060b8514
DTITLE=Charley Pride - The Best Of Charley Pride
DYEAR=1900
DGENRE=
TTITLE0=Kaw-Liga
TTITLE1=Afraid Of Losing You Again
TTITLE2=Oklahoma Morning
TTITLE3=It's Going To Take A Little Bit Longer
TTITLE4=Crystal Chandeliers
TTITLE5=Does My Ring Hurt Your Finger
TTITLE6=I'd Rather Love You
TTITLE7=All I Have To Offer You
TTITLE8=Wonder Could I Live There Anymore
TTITLE9=Is Anybody Goin' to San Antone
TTITLE10=I'm Just Me
TTITLE11=Shutters And Boards
TTITLE12=The Happiness Of Having You
TTITLE13=My Eyes Can Only See As Far As You
TTITLE14=Kiss An Angel Good Morning
TTITLE15=Let Me Live In The Light Of His Love
TTITLE16=Mississippi Cotton-Picking Delta Town
TTITLE17=Help Me Make It Through The Night
TTITLE18=Louisiana Man
TTITLE19=There Goes My Everything: Medley
EXTD=
EXTT0=
EXTT1=
EXTT2=
EXTT3=
EXTT4=
EXTT5=
EXTT6=
EXTT7=
EXTT8=
EXTT9=
EXTT10=
EXTT11=
EXTT12=
EXTT13=
EXTT14=
EXTT15=
EXTT16=
EXTT17=
EXTT18=
EXTT19=
PLAYORDER=
